<svg id="Livello_1" data-name="Livello 1" xmlns="http://www.w3.org/2000/svg" viewBox="0 0 568.76 853.14"><defs><style>.cls-1{fill:#fff;}</style></defs><title>u_alfa</title><path class="cls-1" d="M1221,804.58q-23.4,57.6-63.89,92.24a281.59,281.59,0,0,1-90.45,52.2q-50,17.55-106.64,17.55T853.36,949a281.59,281.59,0,0,1-90.45-52.2q-40.5-34.64-63.89-92.24t-23.4-130.49v-342H798.91v333q0,92.68,44.1,135.44t117,42.75q72.88,0,117-42.75t44.1-135.44v-333h123.29v342Q1244.38,747,1221,804.58ZM774.61,113.43H915.9V269.12H774.61Zm227.69,0h141.29V269.12H1002.3Z" transform="translate(-675.62 -113.43)"/></svg>