<svg id="Livello_4" data-name="Livello 4" xmlns="http://www.w3.org/2000/svg" viewBox="0 0 568.76 853.14"><defs><style>.cls-1{fill:#fff;}</style></defs><title>u_alf</title><path class="cls-1" d="M801,804.58q-23.4,57.6-63.89,92.24A281.59,281.59,0,0,1,646.64,949Q596.69,966.57,540,966.57T433.36,949a281.59,281.59,0,0,1-90.45-52.2q-40.5-34.64-63.89-92.24t-23.4-130.49v-342H378.91v333q0,92.68,44.1,135.44t117,42.75q72.88,0,117-42.75t44.1-135.44v-333H824.38v342Q824.38,747,801,804.58ZM354.61,113.43H495.9V269.12H354.61Zm227.69,0H723.59V269.12H582.3Z" transform="translate(-255.62 -113.43)"/></svg>